<svg width="203" height="63" viewBox="0 0 203 63" fill="none" xmlns="http://www.w3.org/2000/svg">
<path d="M193.961 44.3125V50.3746H153.858C153.842 50.1118 153.813 49.8469 153.812 49.5818C153.808 44.7253 153.791 39.8686 153.81 35.0121C153.824 31.2657 156.046 28.3597 159.471 27.6102C160.162 27.459 160.893 27.4544 161.606 27.4536C169.729 27.4435 177.852 27.4477 185.975 27.4471C187.67 27.447 187.974 27.144 187.974 25.465C187.974 22.8545 187.974 20.2441 187.974 17.6337C187.974 15.7833 187.719 15.5181 185.922 15.5178C178.546 15.5168 171.169 15.5172 163.793 15.5172C163.076 15.5172 162.359 15.5135 161.643 15.5192C160.153 15.5311 159.826 15.8595 159.759 17.3958C159.752 17.5439 159.73 17.6913 159.708 17.9085H153.934C153.058 13.9725 156.457 9.48641 160.425 9.46568C169.354 9.41902 178.283 9.42506 187.212 9.45722C190.426 9.4688 193.613 12.2129 193.815 15.501C194.059 19.456 194.061 23.4493 193.824 27.4048C193.623 30.7634 190.516 33.4734 187.184 33.496C178.763 33.553 170.341 33.5246 161.92 33.5299C160.069 33.531 159.766 33.8305 159.765 35.674C159.764 37.8594 159.762 40.0449 159.763 42.2303C159.764 44.0167 160.052 44.3133 161.782 44.3133C172.055 44.3134 182.328 44.3129 192.601 44.3126C193.04 44.3125 193.478 44.3126 193.961 44.3126L193.961 44.3125Z" fill="white"/>
<path d="M12 50.3341V13.1259C12.1724 13.1064 12.3128 13.0766 12.4531 13.0766C16.7216 13.0759 20.9903 13.0562 25.2586 13.0874C28.305 13.1096 30.0747 14.8225 30.0902 17.9304C30.1363 27.1532 30.134 36.3765 30.091 45.5993C30.0767 48.6509 28.3698 50.3429 25.2027 50.4062C20.8765 50.4926 16.5472 50.4234 12.2192 50.418C12.1663 50.4179 12.1134 50.3788 12 50.3341L12 50.3341ZM17.2621 46.2395C19.2736 46.2395 21.1818 46.272 23.0884 46.2289C24.5403 46.1961 24.8302 45.8456 24.8759 44.3438C24.8805 44.1922 24.8773 44.0403 24.8773 43.8885C24.8772 35.8154 24.8774 27.7422 24.8756 19.6691C24.8756 19.3356 24.8774 18.9998 24.8423 18.669C24.7291 17.6036 24.4104 17.2916 23.3592 17.2554C22.5836 17.2287 21.8066 17.245 21.0303 17.2443C19.7881 17.2432 18.546 17.244 17.2621 17.244V46.2395V46.2395Z" fill="white"/>
<path d="M101.082 27.2911V30.9339C103.163 30.9339 105.183 30.9798 107.197 30.8833C107.492 30.8692 107.99 30.1807 107.996 29.7975C108.056 26.0657 108.038 22.3324 108.028 18.5995C108.026 17.8888 107.663 17.432 106.937 17.4244C105.031 17.4041 103.125 17.4175 101.112 17.4175V24.221C99.3506 24.4676 97.6821 24.7013 95.8936 24.9517C96.4424 22.4202 96.9684 19.9833 97.4997 17.5476C97.7706 16.3052 98.0744 15.0696 98.3157 13.8214C98.4176 13.2944 98.5823 13.0553 99.1761 13.0622C102.311 13.0984 105.447 13.0579 108.581 13.0948C111.388 13.1279 113.168 14.7847 113.235 17.6462C113.334 21.953 113.33 26.2651 113.246 30.5725C113.195 33.2041 112.184 34.3274 109.41 35.2571C111.311 40.2742 113.21 45.2868 115.14 50.3804H109.527C108.567 47.7565 107.584 45.0781 106.606 42.3982C105.828 40.2703 105.036 38.1477 104.294 36.0072C104.104 35.4589 103.847 35.2405 103.271 35.2851C102.59 35.3379 101.903 35.2975 101.111 35.2975V50.3775H95.976C95.9512 50.1848 95.9026 49.9821 95.9023 49.7793C95.8965 46.1071 95.8937 42.4348 95.9003 38.7626C95.9009 38.465 95.9056 38.1354 96.0237 37.8747C97.6305 34.329 99.2576 30.7928 100.88 27.2543C100.947 27.2666 101.015 27.2788 101.082 27.2911V27.2911Z" fill="white"/>
<path d="M53.5078 20.5751C56.9706 20.5751 60.3746 20.4722 63.7691 20.61C66.1741 20.7076 67.3375 22.1548 67.3489 24.6054C67.3627 27.5787 67.3157 30.5528 67.3664 33.5253C67.4058 35.836 66.8658 37.6962 64.2161 38.2519C65.7638 42.3192 67.2798 46.3031 68.851 50.4319C67.3879 50.4319 66.0326 50.4597 64.6809 50.4014C64.4819 50.3928 64.2198 50.0067 64.1223 49.7434C62.8714 46.3676 61.5998 42.9983 60.4406 39.5897C60.0992 38.5861 59.6514 38.1262 58.6107 38.3137C58.3014 38.3695 57.9742 38.3223 57.5734 38.3223V50.381H53.5078V20.5751V20.5751ZM57.6279 34.9394C59.1163 34.9394 60.4861 34.9554 61.8553 34.9341C62.8446 34.9187 63.1331 34.6457 63.1803 33.6338C63.2255 32.6662 63.1995 31.695 63.2002 30.7254C63.2015 28.9679 63.2164 27.2101 63.1893 25.453C63.1802 24.8608 63.2008 24.0899 62.3915 24.0517C60.8241 23.9778 59.2509 24.0301 57.6279 24.0301V34.9394V34.9394Z" fill="white"/>
<path d="M88.4743 35.2291C86.7263 35.4442 85.0811 35.6467 83.2252 35.8752C88.3889 23.8213 93.4912 11.9106 98.5934 0C98.6729 0.0244887 98.7524 0.0489775 98.8319 0.0734662C96.8276 9.27833 94.8232 18.4832 92.7884 27.8279C94.6277 27.5897 96.3731 27.3637 98.2937 27.1151C92.7426 39.1831 87.2648 51.0915 81.787 63L81.499 62.9057C83.8123 53.727 86.1256 44.5484 88.4743 35.2291V35.2291Z" fill="white"/>
<path d="M50.3378 50.4329C49.0593 50.4329 47.8382 50.4612 46.6207 50.4052C46.4174 50.3958 46.1001 50.0453 46.0564 49.8101C45.7147 47.967 45.4064 46.1168 45.1343 44.2618C45.0465 43.6631 44.8159 43.455 44.213 43.4703C42.6311 43.5104 41.047 43.5084 39.4649 43.4703C38.8935 43.4565 38.6937 43.6497 38.6163 44.2179C38.3751 45.9895 38.0763 47.7531 37.7959 49.5191C37.7492 49.8126 37.6823 50.1028 37.6226 50.406H33.5254C35.2507 40.469 36.9681 30.5774 38.7107 20.5406C39.9402 20.5406 41.1799 20.5311 42.4195 20.5441C43.1911 20.5522 44.163 20.3191 44.6739 20.7036C45.1256 21.0435 45.0862 22.0842 45.2247 22.8229C46.5719 30.0098 47.9107 37.1983 49.2525 44.3862C49.5797 46.1391 49.911 47.8913 50.2363 49.6446C50.2792 49.8764 50.2973 50.1129 50.3377 50.4329L50.3378 50.4329ZM41.832 24.7201L41.6153 24.7213C40.8333 29.7863 40.0513 34.8514 39.2625 39.9595H44.41C43.5408 34.8217 42.6864 29.7709 41.832 24.7201V24.7201Z" fill="white"/>
<path d="M132.559 50.3875H128.341V20.6327H140.401C139.961 21.6578 139.557 22.6796 139.072 23.6598C138.986 23.8341 138.563 23.9022 138.293 23.9059C136.741 23.9275 135.189 23.9149 133.637 23.9141C133.315 23.9139 132.993 23.914 132.613 23.914V33.8359H139.196V37.1875H132.559V50.3875L132.559 50.3875Z" fill="white"/>
<path d="M149.996 50.3978H145.79C145.79 49.8632 145.79 49.3592 145.79 48.8553C145.788 40.905 145.773 32.9547 145.804 25.0046C145.807 24.1309 145.585 23.8216 144.714 23.8922C143.8 23.9663 142.875 23.9087 141.772 23.9087C142.251 22.7821 142.658 21.787 143.106 20.8118C143.168 20.6773 143.437 20.5708 143.611 20.5702C147.699 20.5569 151.787 20.5599 155.942 20.5599V23.8677H149.996V50.3978H149.996Z" fill="white"/>
<path d="M72.0645 20.563H76.1049V50.3735H72.0645V20.563Z" fill="white"/>
<path d="M118.969 20.5845H122.933V50.3728H118.969V20.5845Z" fill="white"/>
<path d="M87.1528 20.5399C86.9999 20.9241 86.8971 21.1963 86.7842 21.4642C84.9103 25.9091 83.0222 30.348 81.1817 34.8071C81.0109 35.2208 81.0035 35.8129 81.154 36.2363C81.9423 38.4529 82.8267 40.6341 83.6253 42.8471C83.7762 43.2652 83.7943 43.7956 83.6957 44.2328C83.2911 46.0267 82.8178 47.8046 82.3123 49.8168C82.1037 49.35 81.9673 49.0697 81.851 48.781C80.1567 44.5747 78.454 40.3717 76.792 36.1522C76.6479 35.7862 76.6504 35.2566 76.7977 34.8916C78.6304 30.3496 80.5131 25.8284 82.3508 21.2884C82.5774 20.7284 82.8346 20.4946 83.4513 20.5236C84.6369 20.5794 85.8269 20.5399 87.1528 20.5399L87.1528 20.5399Z" fill="white"/>
</svg>
